<?xml version="1.0" encoding="UTF-8" standalone="no"?>
<!-- Created with Inkscape (http://www.inkscape.org/) -->

<svg
   version="1.1"
   id="svg1"
   width="388.02582"
   height="388.02582"
   viewBox="0 0 388.02582 388.02582"
   sodipodi:docname="qzdzqdzqdq.svg"
   xml:space="preserve"
   inkscape:version="1.3.2 (091e20ef0f, 2023-11-25, custom)"
   xmlns:inkscape="http://www.inkscape.org/namespaces/inkscape"
   xmlns:sodipodi="http://sodipodi.sourceforge.net/DTD/sodipodi-0.dtd"
   xmlns="http://www.w3.org/2000/svg"
   xmlns:svg="http://www.w3.org/2000/svg"><defs
     id="defs1" /><sodipodi:namedview
     id="namedview1"
     pagecolor="#ffffff"
     bordercolor="#666666"
     borderopacity="1.0"
     inkscape:showpageshadow="2"
     inkscape:pageopacity="0.0"
     inkscape:pagecheckerboard="0"
     inkscape:deskcolor="#d1d1d1"
     showgrid="false"
     showguides="false"
     inkscape:zoom="1.1203223"
     inkscape:cx="338.74182"
     inkscape:cy="223.59638"
     inkscape:window-width="1920"
     inkscape:window-height="1062"
     inkscape:window-x="0"
     inkscape:window-y="18"
     inkscape:window-maximized="1"
     inkscape:current-layer="g1" /><g
     inkscape:groupmode="layer"
     inkscape:label="Image"
     id="g1"
     transform="translate(511.87965,194.01291)"><path
       d=""
       style="stroke:#000000"
       id="path5" /><g
       id="g23"><rect
         style="fill:#aa0000;fill-opacity:1;stroke:none;stroke-width:15.6699;stroke-linecap:round;stroke-dasharray:none;stroke-opacity:1;paint-order:stroke fill markers"
         id="rect22"
         width="331.53738"
         height="331.53738"
         x="-483.63544"
         y="-165.76869"
         ry="37.481228" /><path
         style="fill:#ffffff;stroke-width:1.23403"
         d="m -329.36963,101.01983 c -29.124,-3.483193 -56.68058,-20.553193 -72.87619,-45.143333 -7.14207,-10.84396 -24.49589,-16.42907 -54.14123,-17.4247 l -19.43603,-0.65275 v -6.44022 -6.44023 l 17.58498,-3.90631 c 90.9668,-20.20727952 197.07994,-19.7504295 287.5299,1.2379 l 10.7978,2.50556 v 6.52411 6.5241 l -20.05305,0.65312 c -30.53488,0.99448 -44.60719,5.81971 -53.01421,18.17792 -21.4074,31.46861 -59.13502,48.840733 -96.39197,44.384833 z m -89.2569,-110.2601925 c 2.01889,-26.2650805 15.90253,-52.6267305 36.46055,-69.2297305 51.94117,-41.948517 128.07516,-25.132727 156.34166,34.53133 6.16432,13.01144 8.85519,22.69109 9.96817,35.8576805 l 0.80581,9.53269 -4.20641,-0.77766002 c -9.66617,-1.78704998 -37.53848,-4.56997998 -58.98441,-5.88934998 -35.81687,-2.20346 -99.86533,0.0459 -128.37451,4.50860998 -2.43134,0.38059 -6.31049,0.98472 -8.62032,1.34252 l -4.19969,0.65052002 z"
         id="path23" /></g></g></svg>
